o check
v 0.453557 1.210934 -3.161627
v 0.453557 -1.050140 -0.421736
v 0.453557 1.752159 -2.714985
v 0.453557 -0.508914 0.024906
v -0.451894 1.210934 -3.161627
v -0.451894 -1.050140 -0.421736
v -0.451894 1.752159 -2.714985
v -0.451894 -0.508914 0.024906
v 0.452726 1.029098 0.423901
v 0.452726 -0.570951 -0.955379
v 0.452726 0.570951 0.955379
v 0.452726 -1.029098 -0.423901
v -0.452726 1.029098 0.423901
v -0.452726 -0.570951 -0.955379
v -0.452726 0.570951 0.955379
v -0.452726 -1.029098 -0.423901
vt 0.625000 0.500000
vt 0.875000 0.500000
vt 0.875000 0.750000
vt 0.625000 0.750000
vt 0.375000 0.750000
vt 0.625000 1.000000
vt 0.375000 1.000000
vt 0.375000 0.000000
vt 0.625000 0.000000
vt 0.625000 0.250000
vt 0.375000 0.250000
vt 0.125000 0.500000
vt 0.375000 0.500000
vt 0.125000 0.750000
vt 0.625000 0.500000
vt 0.875000 0.500000
vt 0.875000 0.750000
vt 0.625000 0.750000
vt 0.375000 0.750000
vt 0.625000 1.000000
vt 0.375000 1.000000
vt 0.375000 0.000000
vt 0.625000 0.000000
vt 0.625000 0.250000
vt 0.375000 0.250000
vt 0.125000 0.500000
vt 0.375000 0.500000
vt 0.125000 0.750000
vn 0.0000 0.6365 -0.7713
vn 0.0000 0.7713 0.6365
vn -1.0000 0.0000 0.0000
vn 0.0000 -0.6365 0.7713
vn 1.0000 0.0000 0.0000
vn 0.0000 -0.7713 -0.6365
vn 0.0000 0.7574 0.6529
vn 0.0000 -0.6529 0.7574
vn 0.0000 -0.7574 -0.6529
vn 0.0000 0.6529 -0.7574
f 1/1/1 5/2/1 7/3/1 3/4/1
f 4/5/2 3/4/2 7/6/2 8/7/2
f 8/8/3 7/9/3 5/10/3 6/11/3
f 6/12/4 2/13/4 4/5/4 8/14/4
f 2/13/5 1/1/5 3/4/5 4/5/5
f 6/11/6 5/10/6 1/1/6 2/13/6
f 9/15/7 13/16/7 15/17/7 11/18/7
f 12/19/8 11/18/8 15/20/8 16/21/8
f 16/22/3 15/23/3 13/24/3 14/25/3
f 14/26/9 10/27/9 12/19/9 16/28/9
f 10/27/5 9/15/5 11/18/5 12/19/5
f 14/25/10 13/24/10 9/15/10 10/27/10
